<svg xmlns="http://www.w3.org/2000/svg" width="17.7" height="16.34" viewBox="0 0 17.7 16.34">
  <path id="Tracé_8465" data-name="Tracé 8465" d="M-4.11,0h2.04V-4.34H-.25v-1.9H-2.07V-16.2H-4.59L-8.81-6.58v2.24h4.7ZM-6.75-6.24l2.64-7.36v7.36ZM.87,0H8.51V-1.8H3.39L7.11-7.48c.94-1.44,1.78-2.6,1.78-4.68,0-2.62-1.28-4.18-3.88-4.18-2.88,0-3.96,1.82-3.96,4.72v.56H3.19v-.54c0-1.54.38-2.98,1.92-2.98,1.2,0,1.62.92,1.62,2.4,0,1.82-.84,2.8-1.74,4.24L.87-1.52Z" transform="translate(8.81 16.34)" fill="#1a1a1a"/>
</svg>
